# xmcd
#
# Track frame offsets:
#	182
#	13892
#	26140
#	39802
#	51492
#	64425
#	77502
#	90730
#	104437
#	114055
#	130752
#	143670
#
# Disc length: 2046 seconds
# Revision: 2
# Processed by: cddbd v1.5.2PL0 Copyright (c) Steve Scherf et al.
# Submitted via: dBpowerAMP V12.0
#
DISCID=9a07fc0c
DTITLE=Reba McEntire - Country Superstar - Volume 2
DYEAR=1995
DGENRE=Country
TTITLE0=I Don't Want to Be a One Night Stand
TTITLE1=One to One
TTITLE2=I've Waited All My Life for You
TTITLE3=Tears on My Pillow
TTITLE4=Look at the One (Who's Been Lookin' at You)
TTITLE5=You're the First Time I've Thought About Leaving
TTITLE6=Is it Really Love
TTITLE7=Last Night, Ev'ry Night
TTITLE8=Reasons
TTITLE9=Don't Say Goodnight, Say Good Morning
TTITLE10=Only You (And You Alone)
TTITLE11=A Cowboy Like You
EXTD=
EXTT0=
EXTT1=
EXTT2=
EXTT3=
EXTT4=
EXTT5=
EXTT6=
EXTT7=
EXTT8=
EXTT9=
EXTT10=
EXTT11=
PLAYORDER=
